:SAMPLES-PER-SECOND 30
:FULLY-SPECIFIED
:DEGREES
280
root  3.73828 39.1593 -7.37497 8.88812 -77.3409 -10.8323
RightUpLeg  -5.34321 0.605667 8.64332
RightLeg  14.3556 -2.7427 -1.56487
RightFoot  -9.63755 0.162011 -4.31801
RightToes  1.74624e-010 -3.18055e-015 -2.98177e-016
Spine  2.48347 -4.67342 -1.8693
Spine1  10.3665 -10.3317 21.816
HEad  -6.07276 3.14951 -2.38559
LeftShoulder1  -3.88251e-019 9.70628e-020 -3.87848e-018
LeftArm  -26.1988 50.4499 -83.1267
LeftForeArm  -4.03394 -24.2925 2.38837
LeftHand  -1.09149 -6.0513 11.6997
RightShoulder  7.34971 10.2637 35.2192
RightArm  10.3485 -42.7914 12.8251
RightForeArm  4.73713 17.4262 -7.88257
RightHand  -0.802965 1.9895 -12.4555
LeftUpLeg  -14.7841 1.05356 6.99961
LeftLeg  18.7876 5.82225 8.31249
LeftFoot  -5.51528 0.177606 -2.91624
LeftToes  7.37594e-011 2.64622e-011 -6.25182e-011
281
root  3.7254 39.1358 -7.46418 8.7002 -77.5191 -10.4853
RightUpLeg  -5.74975 1.12036 8.95473
RightLeg  14.6779 -3.00792 -2.25311
RightFoot  -9.79855 0.148084 -4.03703
RightToes  1.74624e-010 -3.18055e-015 -2.98177e-016
Spine  1.6367 -3.6879 -2.2936
Spine1  11.5865 -9.51033 21.979
HEad  -6.7615 0.294103 -2.12638
LeftShoulder1  -3.88251e-019 9.70628e-020 -3.87848e-018
LeftArm  -29.0414 50.0398 -82.9678
LeftForeArm  -1.57435 -22.4929 1.19256
LeftHand  -1.0669 -5.7828 11.7168
RightShoulder  7.24421 10.1919 34.8363
RightArm  12.7607 -42.5703 14.3305
RightForeArm  2.04057 18.9541 -8.962
RightHand  -0.866345 2.30796 -12.8942
LeftUpLeg  -15.242 8.44214 6.46951
LeftLeg  20.4272 8.87357 10.1461
LeftFoot  -6.21815 0.18501 -3.35842
LeftToes  7.37594e-011 2.64622e-011 -6.25182e-011
282
root  3.70087 39.119 -7.56361 8.70908 -77.8047 -10.2038
RightUpLeg  -6.27519 1.776 9.33073
RightLeg  14.9596 -3.26883 -3.00532
RightFoot  -9.91008 0.138414 -3.82419
RightToes  1.74624e-010 -3.18055e-015 -2.98177e-016
Spine  0.794076 -2.52072 -2.9317
Spine1  12.4643 -8.4933 22.3522
HEad  -7.24326 -2.29674 -1.9047
LeftShoulder1  -3.88251e-019 9.70628e-020 -3.87848e-018
LeftArm  -31.6164 49.9298 -82.8229
LeftForeArm  -0.450088 -20.7081 0.238241
LeftHand  -1.0067 -5.34962 11.5193
RightShoulder  7.10881 10.104 34.3308
RightArm  14.4938 -42.2053 15.7468
RightForeArm  0.133011 19.9796 -9.85577
RightHand  -0.928147 2.63442 -13.2644
LeftUpLeg  -16.1551 16.8086 5.7268
LeftLeg  22.8518 11.9946 12.5866
LeftFoot  -6.65213 0.18656 -3.63129
LeftToes  7.37594e-011 2.64622e-011 -6.25182e-011
283
root  3.68516 39.0938 -7.59 7.7749 -76.9345 -9.15185
RightUpLeg  -6.59615 1.97053 9.42909
RightLeg  15.3489 -4.21208 -3.72967
RightFoot  -10.1214 0.123299 -3.4969
RightToes  1.74624e-010 -3.18055e-015 -2.98177e-016
Spine  0.517714 -1.84003 -3.05964
Spine1  12.6895 -7.72488 22.1923
HEad  -7.55801 -4.57986 -1.40536
LeftShoulder1  -3.88251e-019 9.70628e-020 -3.87848e-018
LeftArm  -33.3542 50.0973 -82.4103
LeftForeArm  -0.27578 -19.0682 -0.428637
LeftHand  -0.95264 -4.89566 11.4006
RightShoulder  7.07874 10.0914 34.2019
RightArm  15.474 -41.5509 16.7355
RightForeArm  -0.60857 20.5032 -10.3388
RightHand  -0.958856 2.84092 -13.366
LeftUpLeg  -17.4186 23.583 4.60354
LeftLeg  25.7447 13.8624 15.0123
LeftFoot  -7.25596 0.140619 -3.13512
LeftToes  7.37594e-011 2.64622e-011 -6.25182e-011
284
root  3.68771 39.0785 -7.52906 5.93422 -74.4931 -7.44399
RightUpLeg  -6.47258 1.51465 9.12539
RightLeg  15.5996 -6.08752 -4.25112
RightFoot  -10.3547 0.10197 -2.90085
RightToes  1.74624e-010 -3.18055e-015 -2.98177e-016
Spine  0.907999 -1.78271 -2.49785
Spine1  12.2798 -7.28019 21.1377
HEad  -7.78934 -6.81313 -0.584411
LeftShoulder1  -3.88251e-019 9.70628e-020 -3.87848e-018
LeftArm  -34.0092 50.429 -81.7457
LeftForeArm  -0.295976 -17.7137 -0.865906
LeftHand  -0.944244 -4.60266 11.633
RightShoulder  7.13122 10.1308 34.3876
RightArm  16.1707 -40.8827 17.1573
RightForeArm  -0.713991 20.7352 -10.5513
RightHand  -0.973008 2.93845 -13.4074
LeftUpLeg  -18.6487 27.6339 3.07306
LeftLeg  28.2783 13.9773 16.5943
LeftFoot  -7.99627 0.0721015 -2.10084
LeftToes  7.37594e-011 2.64622e-011 -6.25182e-011
285
root  3.71712 39.0752 -7.41143 4.36312 -70.8662 -6.13721
RightUpLeg  -6.01478 0.605324 8.5881
RightLeg  15.6449 -8.69484 -4.49026
RightFoot  -10.5109 0.0809292 -2.15702
RightToes  1.74624e-010 -3.18055e-015 -2.98177e-016
Spine  1.76796 -2.1404 -1.51136
Spine1  11.3586 -7.11279 19.6427
HEad  -8.08828 -9.15933 0.337528
LeftShoulder1  -3.88251e-019 9.70628e-020 -3.87848e-018
LeftArm  -33.9426 50.9078 -81.137
LeftForeArm  -0.224501 -16.8183 -1.16744
LeftHand  -0.951399 -4.49468 11.8474
RightShoulder  7.14464 10.1424 34.4313
RightArm  16.6141 -40.3758 17.2677
RightForeArm  -0.521932 20.731 -10.5277
RightHand  -0.993671 3.00505 -13.5838
LeftUpLeg  -19.6784 29.2854 1.33677
LeftLeg  30.0689 12.9672 17.1762
LeftFoot  -9.00722 0.0174288 -1.16406
LeftToes  7.37594e-011 2.64622e-011 -6.25182e-011
